<svg width="20" height="20" viewBox="0 0 20 20" fill="none" xmlns="http://www.w3.org/2000/svg">
<path d="M0.769231 19.2307C0.344396 18.8058 0.344396 18.117 0.76923 17.6922L17.6923 0.769116C18.1171 0.344282 18.8059 0.344281 19.2308 0.769116C19.6556 1.19395 19.6556 1.88274 19.2308 2.30758L2.30769 19.2307C1.88286 19.6555 1.19406 19.6555 0.769231 19.2307Z" fill="white"/>
<path d="M19.2308 19.2307C19.6556 18.8058 19.6556 18.117 19.2308 17.6922L2.3077 0.769116C1.88287 0.344282 1.19408 0.344281 0.769241 0.769116C0.344407 1.19395 0.344406 1.88274 0.769241 2.30758L17.6923 19.2307C18.1171 19.6555 18.8059 19.6555 19.2308 19.2307Z" fill="white"/>
</svg>
