<svg width="28" height="20" viewBox="0 0 28 20" fill="none" xmlns="http://www.w3.org/2000/svg">
<path d="M26.7441 3.72852C27.3301 5.7793 27.3301 10.1738 27.3301 10.1738C27.3301 10.1738 27.3301 14.5195 26.7441 16.6191C26.4512 17.791 25.5234 18.6699 24.4004 18.9629C22.3008 19.5 14 19.5 14 19.5C14 19.5 5.65039 19.5 3.55078 18.9629C2.42773 18.6699 1.5 17.791 1.20703 16.6191C0.621094 14.5195 0.621094 10.1738 0.621094 10.1738C0.621094 10.1738 0.621094 5.7793 1.20703 3.72852C1.5 2.55664 2.42773 1.62891 3.55078 1.33594C5.65039 0.75 14 0.75 14 0.75C14 0.75 22.3008 0.75 24.4004 1.33594C25.5234 1.62891 26.4512 2.55664 26.7441 3.72852ZM11.2656 14.1289L18.1992 10.1738L11.2656 6.21875V14.1289Z" fill="white"/>
</svg>
